<?xml version="1.0" encoding="utf-8"?>
<!-- Generator: Adobe Illustrator 24.2.1, SVG Export Plug-In . SVG Version: 6.00 Build 0)  -->
<svg version="1.2" baseProfile="tiny" id="Layer_1" xmlns="http://www.w3.org/2000/svg" xmlns:xlink="http://www.w3.org/1999/xlink"
	 x="0px" y="0px" viewBox="0 0 200 200" overflow="visible" xml:space="preserve">
<g>
	<g>
		<path d="M93.27,91.55H73.08V52.48l-14.7,38.95H38.41L23.7,52.48v39.06H3.51V3.98H23.7l24.69,63.64L73.08,3.98h20.19V91.55z"/>
		<path d="M93.27,198.32H68L30.24,145.1v53.22h-25v-87.57h25l38.04,53.99v-53.99h25V198.32z"/>
		<g>
			<path d="M119.61,26.06c3.27,0,6.04-1.13,8.3-3.39c2.26-2.26,3.39-5.03,3.39-8.3c0-3.18-1.13-5.92-3.39-8.23
				c-2.26-2.31-5.03-3.46-8.3-3.46c-3.18,0-5.9,1.15-8.16,3.46c-2.26,2.31-3.39,5.05-3.39,8.23c0,3.27,1.13,6.04,3.39,8.3
				C113.71,24.93,116.43,26.06,119.61,26.06z"/>
			<rect x="106.98" y="74.88" width="25.4" height="123.44"/>
			<path d="M119.61,60.47c3.27,0,6.04-1.13,8.3-3.39c2.26-2.26,3.39-5.03,3.39-8.3c0-3.18-1.13-5.92-3.39-8.23
				c-2.26-2.31-5.03-3.46-8.3-3.46c-3.18,0-5.9,1.15-8.16,3.46c-2.26,2.31-3.39,5.05-3.39,8.23c0,3.27,1.13,6.04,3.39,8.3
				C113.71,59.34,116.43,60.47,119.61,60.47z"/>
		</g>
	</g>
	<g>
		<path d="M144.88,21.7c0-6.47,1.71-11.42,5.12-14.86c3.42-3.44,7.82-5.15,13.2-5.15c5.43,0,9.84,1.72,13.23,5.15
			c3.4,3.44,5.09,8.39,5.09,14.86c0,3.05-0.58,5.91-1.75,8.56l-9.1-1.21c0.76-2.69,1.15-5.15,1.15-7.36c0-6.03-2.87-9.22-8.62-9.59
			c-5.06,0-7.94,3.2-8.62,9.59c0,2.97,0.4,5.47,1.21,7.48l-9.16,0.96C145.46,27.52,144.88,24.71,144.88,21.7z"/>
		<path d="M146.33,40.99c1.93-5.31,5.33-7.96,10.19-7.96c2.85,0,5.37,1.15,7.54,3.44c3.34,3.82,5.16,9.41,5.49,16.76
			c2.09-1.09,3.13-2.55,3.13-4.4c0-1.49-0.26-3.3-0.78-5.43c-0.44-1.61-0.96-2.83-1.57-3.68l6.81-5.55
			c1.89,2.57,3.26,6.31,4.1,11.21c0.2,1.25,0.3,2.45,0.3,3.62c0,9.44-5.33,14.43-15.98,14.95h-19.47V53.89h1.87
			c-1.49-3.06-2.23-5.99-2.23-8.8C145.72,43.64,145.93,42.27,146.33,40.99z M155.79,53.65h5.18c1-0.24,1.51-1.49,1.51-3.74
			c0-2.93-0.7-5.21-2.11-6.81c-0.8-0.88-1.77-1.33-2.89-1.33c-1.89,0-3.24,1.06-4.04,3.2c-0.24,0.76-0.36,1.49-0.36,2.17
			C153.08,49.27,153.98,51.44,155.79,53.65z"/>
		<path d="M146.27,100.86V90.25c14.35,0,21.74-0.02,22.19-0.06c1.04-0.16,1.57-0.9,1.57-2.23c0-0.04-0.04-0.3-0.12-0.78
			c-0.08-0.48-0.26-1.08-0.54-1.78c-0.28-0.7-0.71-1.41-1.3-2.11c-0.58-0.7-1.35-1.3-2.29-1.78c-0.94-0.48-2.14-0.72-3.59-0.72
			h-15.92V70.17h34.06v10.61h-1.39c1.13,2.49,1.69,4.86,1.69,7.11c0,3.66-1.19,6.71-3.56,9.16c-2.33,2.53-5.57,3.8-9.71,3.8H146.27z
			"/>
		<path d="M144.88,140.41c0-4.42,1.86-8.2,5.58-11.33s8.21-4.7,13.47-4.7c5.27,0,9.77,1.57,13.5,4.7c3.74,3.14,5.61,6.91,5.61,11.33
			c0,2.29-0.54,4.44-1.63,6.45h15.07v10.61h-51.01v-10.61h1.02C145.42,144.85,144.88,142.7,144.88,140.41z M154.04,140.41
			c0,2.37,1.01,4.03,3.04,4.97c2.03,0.94,4.31,1.42,6.84,1.42c2.57,0,4.87-0.47,6.9-1.42c2.03-0.94,3.04-2.6,3.04-4.97
			c0-2.37-1.02-4.03-3.04-4.97c-2.03-0.94-4.33-1.42-6.9-1.42c-2.53,0-4.81,0.47-6.84,1.42
			C155.06,136.38,154.04,138.03,154.04,140.41z"/>
		<path d="M145.12,179.59c0-4.98,1.79-9.22,5.37-12.72s7.9-5.25,12.96-5.25c5.02,0,9.33,1.75,12.93,5.25c3.6,3.5,5.4,7.74,5.4,12.72
			c0,4.94-1.8,9.16-5.4,12.66c-3.6,3.5-7.91,5.25-12.93,5.25c-5.06,0-9.39-1.75-12.96-5.25S145.12,184.54,145.12,179.59z
			 M153.92,179.59c0,2.65,0.96,4.5,2.89,5.55c1.93,1.04,4.14,1.57,6.63,1.57c2.45,0,4.65-0.52,6.6-1.57
			c1.95-1.05,2.92-2.89,2.92-5.55c0-2.69-0.98-4.56-2.92-5.61c-1.95-1.05-4.15-1.57-6.6-1.57c-2.49,0-4.7,0.52-6.63,1.57
			C154.89,175.03,153.92,176.9,153.92,179.59z"/>
	</g>
</g>
</svg>
